name C:\Users\u0150099\Documents\master_thesis\3dpredictsim\Results\Final\Fal_s1_bCst_tanh100_ig21.mot
datacolumns 126
datarows 4
range 0.55065818 0.58369767
endheader
time	pelvis_tilt	pelvis_list	pelvis_rotation	pelvis_tx	pelvis_ty	pelvis_tz	hip_flexion_l	hip_adduction_l	hip_rotation_l	hip_flexion_r	hip_adduction_r	hip_rotation_r	knee_angle_l	knee_angle_r	ankle_angle_l	ankle_angle_r	subtalar_angle_l	subtalar_angle_r	mtp_angle_l	mtp_angle_r	lumbar_extension	lumbar_bending	lumbar_rotation	arm_flex_l	arm_add_l	arm_rot_l	arm_flex_r	arm_add_r	arm_rot_r	elbow_flex_l	elbow_flex_r	pro_sup_l	pro_sup_r	glut_med1_l/activation	glut_med2_l/activation	glut_med3_l/activation	glut_min1_l/activation	glut_min2_l/activation	glut_min3_l/activation	semimem_l/activation	semiten_l/activation	bifemlh_l/activation	bifemsh_l/activation	sar_l/activation	add_long_l/activation	add_brev_l/activation	add_mag1_l/activation	add_mag2_l/activation	add_mag3_l/activation	tfl_l/activation	pect_l/activation	grac_l/activation	glut_max1_l/activation	glut_max2_l/activation	glut_max3_l/activation	iliacus_l/activation	psoas_l/activation	quad_fem_l/activation	gem_l/activation	peri_l/activation	rect_fem_l/activation	vas_med_l/activation	vas_int_l/activation	vas_lat_l/activation	med_gas_l/activation	lat_gas_l/activation	soleus_l/activation	tib_post_l/activation	flex_dig_l/activation	flex_hal_l/activation	tib_ant_l/activation	per_brev_l/activation	per_long_l/activation	per_tert_l/activation	ext_dig_l/activation	ext_hal_l/activation	ercspn_l/activation	intobl_l/activation	extobl_l/activation	glut_med1_r/activation	glut_med2_r/activation	glut_med3_r/activation	glut_min1_r/activation	glut_min2_r/activation	glut_min3_r/activation	semimem_r/activation	semiten_r/activation	bifemlh_r/activation	bifemsh_r/activation	sar_r/activation	add_long_r/activation	add_brev_r/activation	add_mag1_r/activation	add_mag2_r/activation	add_mag3_r/activation	tfl_r/activation	pect_r/activation	grac_r/activation	glut_max1_r/activation	glut_max2_r/activation	glut_max3_r/activation	iliacus_r/activation	psoas_r/activation	quad_fem_r/activation	gem_r/activation	peri_r/activation	rect_fem_r/activation	vas_med_r/activation	vas_int_r/activation	vas_lat_r/activation	med_gas_r/activation	lat_gas_r/activation	soleus_r/activation	tib_post_r/activation	flex_dig_r/activation	flex_hal_r/activation	tib_ant_r/activation	per_brev_r/activation	per_long_r/activation	per_tert_r/activation	ext_dig_r/activation	ext_hal_r/activation	ercspn_r/activation	intobl_r/activation	extobl_r/activation	
          0.55065818	         -2.92817605	          2.10779411	         -5.47506500	          0.68832272	          0.91814006	          0.00324851	         29.69256573	          3.55581165	         -0.83339915	        -16.96019977	         -1.11864510	          7.53471498	        -12.62970489	         -6.86463343	          5.21771164	          2.34210518	         -4.70196861	         11.19456791	         -0.11066482	         20.07730109	         -2.76774638	         -0.79439484	          1.75210987	         -6.36685554	        -13.54506542	          6.02490421	          7.48952882	        -13.46948420	         17.64737390	         14.27078060	         36.94258283	         86.51662706	         86.51662706	          0.05917761	          0.05917765	          0.05000006	          0.05917768	          0.05917767	          0.05917751	          0.06648209	          0.05000050	          0.24516913	          0.05000004	          0.05000015	          0.13743396	          0.29533704	          0.13770777	          0.16265488	          0.12768325	          0.05000007	          0.08300697	          0.06202801	          0.05000033	          0.05000032	          0.16130853	          0.05000410	          0.05000013	          0.27253435	          0.25008770	          0.12535949	          0.05530985	          0.16104620	          0.15970313	          0.13896742	          0.05000048	          0.05000084	          0.05337219	          0.05000001	          0.05000030	          0.05000010	          0.55334376	          0.27239329	          0.15012328	          0.34369327	          0.46677271	          0.28527916	          0.05917763	          0.08897426	          0.09506626	          0.28169798	          0.09811162	          0.07003984	          0.35167012	          0.21454838	          0.11539186	          0.05000038	          0.05000012	          0.05000008	          0.07498920	          0.10210051	          0.10207911	          0.09882624	          0.05000099	          0.05000143	          0.05000043	          0.41322008	          0.08345327	          0.05000096	          0.05000103	          0.05000059	          0.05000047	          0.32016777	          0.62872785	          0.05000013	          0.05000022	          0.05000017	          0.17400549	          0.06404607	          0.06058790	          0.05049169	          0.26990601	          0.35965172	          0.28632305	          0.24558268	          0.33772029	          0.42912512	          0.05000000	          0.05917731	          0.12708830	          0.05000007	          0.05000001	          0.05000008	          0.05000032	          0.05000007	          0.05000030	
          0.56167134	         -2.92159236	          2.25395498	         -5.77441882	          0.70488611	          0.91713162	          0.00294859	         29.02361747	          3.96071820	         -0.64535388	        -16.71471812	         -1.44890335	          7.34518782	        -12.74724270	         -9.00409715	          4.60141159	          1.64687651	         -5.06675907	         12.10346245	         -0.07545574	         21.01477978	         -2.57801748	         -1.02297316	          1.85592518	         -7.29943927	        -13.55240159	          5.77166765	          7.22113499	        -13.48630120	         17.85663151	         14.09989602	         38.19489639	         86.51662706	         86.51662706	          0.05000000	          0.05000004	          0.11505336	          0.05000005	          0.05000005	          0.05000005	          0.05617166	          0.05000104	          0.20714679	          0.05000030	          0.05000063	          0.11611997	          0.27789811	          0.34833284	          0.24270172	          0.14278422	          0.05000026	          0.07013478	          0.16033222	          0.08411213	          0.09393046	          0.13629187	          0.05000004	          0.05000023	          0.47541657	          0.21130256	          0.10591798	          0.05917773	          0.16146947	          0.16845638	          0.13474989	          0.05000013	          0.05917826	          0.05000001	          0.06608983	          0.05000095	          0.05917789	          0.46752779	          0.31963513	          0.18517969	          0.29039159	          0.46346406	          0.24103633	          0.05000000	          0.07517558	          0.08032280	          0.23801053	          0.08289588	          0.05917766	          0.29713100	          0.18127491	          0.09749619	          0.05000223	          0.05000034	          0.05000040	          0.06335942	          0.08626620	          0.18872854	          0.11785019	          0.07004125	          0.05917975	          0.05918200	          0.34913560	          0.07051143	          0.05000103	          0.05000403	          0.05000411	          0.05917503	          0.27051419	          0.59171845	          0.05000094	          0.05917748	          0.05593523	          0.14701971	          0.15246958	          0.15387350	          0.13359770	          0.22804730	          0.30387471	          0.24191829	          0.21636196	          0.28534508	          0.36259901	          0.05000001	          0.05000005	          0.13636646	          0.05000005	          0.05000001	          0.05000007	          0.06998104	          0.06357780	          0.05144603	
          0.57268450	         -2.91087953	          2.40432101	         -6.04430835	          0.72169789	          0.91615962	          0.00265320	         28.22738081	          4.28170013	         -0.43607143	        -16.38715568	         -1.77417687	          7.14216881	        -13.13494486	        -11.27610123	          4.14625009	          0.75465227	         -5.44873025	         12.94873995	         -0.16452542	         21.79544914	         -2.36970075	         -1.25847759	          1.94943023	         -8.23451580	        -13.56421513	          5.58785373	          6.87332328	        -13.50140629	         17.98914766	         13.95650853	         39.42001477	         86.51662706	         86.51662706	          0.27305706	          0.26997220	          0.31107480	          0.33027198	          0.20054550	          0.15817068	          0.07628855	          0.06798664	          0.17502125	          0.05000050	          0.05000075	          0.09811139	          0.23479999	          0.29431127	          0.20506211	          0.13156142	          0.05000021	          0.05925868	          0.13546705	          0.16884454	          0.11165980	          0.11515494	          0.05000048	          0.05000017	          0.40168608	          0.17853255	          0.21340320	          0.05000010	          0.13642784	          0.14233118	          0.11385208	          0.05000030	          0.05000067	          0.05229762	          0.05584025	          0.05000021	          0.05000042	          0.56741554	          0.35621491	          0.16331539	          0.44807990	          0.51789819	          0.30915742	          0.06796377	          0.09434824	          0.06786585	          0.33895982	          0.07003988	          0.05000007	          0.36546498	          0.15316171	          0.08237590	          0.05000095	          0.05000014	          0.05000010	          0.05353328	          0.07288760	          0.15945972	          0.12217596	          0.05917895	          0.05000231	          0.05000381	          0.41184016	          0.08289577	          0.05000085	          0.05000089	          0.05000051	          0.05000032	          0.22856120	          0.55274186	          0.05000008	          0.05000034	          0.05000008	          0.12421900	          0.12882371	          0.13000991	          0.11287859	          0.19268031	          0.25674793	          0.20440010	          0.18280729	          0.24109213	          0.30636505	          0.05000000	          0.09561679	          0.15556999	          0.05000006	          0.05000001	          0.05000007	          0.06574405	          0.05371776	          0.05000002	
          0.58369767	         -2.89833991	          2.54580759	         -6.28006407	          0.73854909	          0.91525889	          0.00232173	         27.37323490	          4.58130209	         -0.23330973	        -15.95015451	         -2.08304836	          6.94072110	        -13.47114206	        -13.69948948	          3.75486619	         -0.33866845	         -5.84459258	         13.73549810	         -0.17852927	         22.36647800	         -2.16491974	         -1.48618046	          2.03499743	         -9.12514308	        -13.57287066	          5.46563233	          6.48603216	        -13.52136766	         18.07155688	         13.81498849	         40.58321781	         86.51662706	         86.51662706	          0.35805607	          0.36234502	          0.40427064	          0.27905142	          0.16944381	          0.14807486	          0.08010093	          0.12336857	          0.14787792	          0.07003983	          0.05000039	          0.08289569	          0.19838586	          0.24866806	          0.21867704	          0.18498575	          0.05000010	          0.05006961	          0.15041394	          0.25651358	          0.18517588	          0.17487723	          0.05000006	          0.05000006	          0.33939023	          0.15084467	          0.18469747	          0.05000002	          0.16621831	          0.18020552	          0.13333180	          0.05000000	          0.05000002	          0.05000000	          0.05000000	          0.05000004	          0.05000004	          0.61786916	          0.30097130	          0.13828351	          0.68174544	          0.53992644	          0.39422549	          0.08890874	          0.07971613	          0.05734080	          0.28639208	          0.05917768	          0.05000003	          0.30878672	          0.12940848	          0.06960055	          0.05000161	          0.05000014	          0.05000011	          0.05000006	          0.06158382	          0.17886361	          0.13401826	          0.05000156	          0.05000140	          0.05000609	          0.40870131	          0.07004019	          0.05000045	          0.05000096	          0.05000060	          0.05000040	          0.19311452	          0.50386992	          0.05000007	          0.05000028	          0.05000006	          0.10495437	          0.11611925	          0.11611936	          0.11364941	          0.16279825	          0.21692987	          0.17270046	          0.15445643	          0.20370215	          0.25885212	          0.05000008	          0.11320528	          0.14417829	          0.05000011	          0.08972219	          0.05000019	          0.09416514	          0.05000000	          0.05000001	
